<svg xmlns="http://www.w3.org/2000/svg" version="1.1" xmlns:xlink="http://www.w3.org/1999/xlink" xmlns:svgjs="http://svgjs.com/svgjs" width="1920" height="1080" preserveAspectRatio="none" viewBox="0 0 1920 1080">
    <g mask="url(&quot;#SvgjsMask1402&quot;)" fill="none">
        <rect width="1920" height="1080" x="0" y="0" fill="url(#SvgjsLinearGradient1403)"></rect>
        <path d="M-65.94993657896678 193.58866492809324L94.56934572415045 338.1208759016065 231.10802103286179 25.075846960174033z" fill="rgba(1, 114, 114, 0.61)" class="triangle-float3"></path>
        <path d="M-22.22020576503649-35.619977755573956L-116.90837347147722 158.51953624504614 221.64498138267328 203.4820308043972z" fill="rgba(1, 114, 114, 0.61)" class="triangle-float1"></path>
        <path d="M297.7680643342164 147.64948623683148L260.26005795815945-65.06898841380547-40.06365082976748 97.55225847559845z" fill="rgba(1, 114, 114, 0.61)" class="triangle-float2"></path>
        <path d="M1894.252,444.088C1977.103,439.812,2028.268,363.415,2068.963,291.121C2108.592,220.721,2141.004,140.816,2105.934,68.038C2066.618,-13.551,1984.564,-78.246,1894.252,-71.441C1810.985,-65.167,1771.497,22.984,1731.445,96.255C1693.817,165.092,1651.985,239.872,1685.242,310.924C1722.776,391.114,1805.83,448.651,1894.252,444.088" fill="rgba(1, 114, 114, 0.61)" class="triangle-float2"></path>
        <path d="M1645.1069061779783 175.42918681486415L2012.9436618724815 220.9497443701303 1891.571125605726-79.45782450950878z" fill="rgba(1, 114, 114, 0.61)" class="triangle-float3"></path>
        <path d="M1857.604,377.063C1935.63,375.801,2006.767,329.7,2042.083,260.113C2074.512,196.214,2053.548,123.217,2018.011,60.993C1982.1,-1.886,1929.909,-58.988,1857.604,-62.899C1779.088,-67.146,1704.131,-25.792,1664.036,41.848C1623.155,110.815,1622.404,196.821,1662.495,266.25C1702.582,335.671,1777.45,378.359,1857.604,377.063" fill="rgba(1, 114, 114, 0.61)" class="triangle-float3"></path>
        <path d="M-19.27922061357856 1099.2792206135787L337.10259710444143 997.4558441227157 107.99999999999994 768.3532470182743z" fill="rgba(1, 114, 114, 0.61)" class="triangle-float3"></path>
        <path d="M25.35,974.274C54.997,973.886,80.585,955.477,95.424,929.807C110.279,904.111,112.741,873.135,99.036,846.807C84.195,818.297,57.473,794.098,25.35,795.192C-5.496,796.242,-25.523,824.356,-40.129,851.545C-53.743,876.887,-61.514,906.301,-47.973,931.682C-33.713,958.41,-4.941,974.67,25.35,974.274" fill="rgba(1, 114, 114, 0.61)" class="triangle-float1"></path>
        <path d="M311.29941054629444 818.8029057993291L-9.547443725974404 773.710821088268-54.63952843703555 1094.557675360537 266.2073258352333 1139.649760071598z" fill="rgba(1, 114, 114, 0.61)" class="triangle-float1"></path>
        <path d="M1692.4920507767463 747.238237076561L1597.7636184465796 1057.0809780085845 1907.606359378603 1151.8094103387511 2002.33479170877 841.9666694067276z" fill="rgba(1, 114, 114, 0.61)" class="triangle-float3"></path>
        <path d="M1626.4097408656544 915.9620154319728L1645.2353812991485 1131.1400702197898 1958.589643264127 995.31258217564z" fill="rgba(1, 114, 114, 0.61)" class="triangle-float2"></path>
        <path d="M1873.5832606425704 1218.99696761019L2040.455596913428 941.2747621827057 1762.7333914859435 774.402425911848 1595.861055215086 1052.1246313393326z" fill="rgba(1, 114, 114, 0.61)" class="triangle-float2"></path>
    </g>
    <defs>
        <mask id="SvgjsMask1402">
            <rect width="1920" height="1080" fill="#ffffff"></rect>
        </mask>
        <linearGradient x1="89.06%" y1="119.44%" x2="10.94%" y2="-19.44%" gradientUnits="userSpaceOnUse" id="SvgjsLinearGradient1403">
            <stop stop-color="#0e2a47" offset="0"></stop>
            <stop stop-color="rgba(0, 59, 61, 1)" offset="1"></stop>
        </linearGradient>
        <style>
            @keyframes float1 {
                0%{transform: translate(0, 0)}
                50%{transform: translate(-10px, 0)}
                100%{transform: translate(0, 0)}
            }

            .triangle-float1 {
                animation: float1 5s infinite;
            }

            @keyframes float2 {
                0%{transform: translate(0, 0)}
                50%{transform: translate(-5px, -5px)}
                100%{transform: translate(0, 0)}
            }

            .triangle-float2 {
                animation: float2 4s infinite;
            }

            @keyframes float3 {
                0%{transform: translate(0, 0)}
                50%{transform: translate(0, -10px)}
                100%{transform: translate(0, 0)}
            }

            .triangle-float3 {
                animation: float3 6s infinite;
            }
        </style>
    </defs>
</svg>